<?xml version="1.0" encoding="utf-8"?>
<!-- Generator: Adobe Illustrator 16.0.0, SVG Export Plug-In . SVG Version: 6.00 Build 0)  -->
<!DOCTYPE svg PUBLIC "-//W3C//DTD SVG 1.1//EN" "http://www.w3.org/Graphics/SVG/1.1/DTD/svg11.dtd">
<svg version="1.1" id="Layer_1" xmlns="http://www.w3.org/2000/svg" xmlns:xlink="http://www.w3.org/1999/xlink" x="0px" y="0px"
	 width="208px" height="82.354px" viewBox="0 0 208 82.354" enable-background="new 0 0 208 82.354" xml:space="preserve">
<g>
	<path fill="#3D3D3F" d="M94.814,41.26c-1.563,0.721-4.788,3.816-8.333,10.35c-1.572,2.895-7.403,13.766-8.257,15.385
		c-2.22,4.205-5.476,10.334-5.978,11.656c-0.356,0.936-0.259,0.836,0.132,0.99c0.34,0.133,0.552,0.316,0.859-0.514
		c0.741-2.014,2.661-5.484,3.904-7.807c1.785-3.334,6.404-11.971,8.428-15.936c2.489-4.877,4.586-8.146,6.067-9.93
		c1.303-1.57,2.388-2.639,3.604-3.27c1.042-0.542,0.929-0.6,0.755-0.994C95.819,40.797,95.646,40.877,94.814,41.26z"/>
	<path fill="#3D3D3F" d="M96.097,51.393c-0.973,1.836-3.1,5.652-4.983,9.287c-1.908,3.68-3.946,7.439-5.657,10.664
		c-1.688,3.18-3.023,5.617-3.432,6.6c-0.46,1.107-0.334,1.41,0.477,1.703c0.812,0.291,0.998,0.023,1.606-1.039
		c0.546-0.953,2.445-4.676,3.203-6.072c0.788-1.457,4.217-8.311,6.954-13.211c2.736-4.898,2.994-5.631,3.502-6.633
		c0.604-1.189,0.469-1.309-0.219-1.65C96.674,50.609,96.483,50.668,96.097,51.393z"/>
	<path fill="#3D3D3F" d="M95.887,42.792c-0.854,1.522-3.352,6.431-5.222,10.063c-1.87,3.631-5.869,11.381-7.19,13.855
		c-1.321,2.475-5.004,9.338-5.472,10.33c-0.468,0.994-0.998,1.688-0.307,2.082c0.691,0.393,0.608,0.244,1.215,0.529
		c0.606,0.287,1.274,0.01,1.774-1.172c0.576-1.359,3.509-7.01,4.231-8.49c0.722-1.48,3.002-5.828,4.768-9.182
		c1.028-1.953,5.982-11.363,7.274-13.785c1.304-2.447,1.564-2.938,1.864-3.539c0.301-0.603,0.722-1.117,0.028-1.617
		c-0.896-0.646-1.218-0.648-1.378-0.688C96.808,41.013,96.489,41.719,95.887,42.792z"/>
	<path fill="#3D3D3F" d="M88.064,52.562c-0.603,1.129-2.617,5.031-3.967,7.559c-1.35,2.527-4.508,8.443-6.146,11.512
		c-1.637,3.064-3.166,5.893-3.619,6.775c-0.442,0.861-0.366,1.064,0.021,1.254c0.283,0.141,0.793,0.189,1.072-0.324
		c0.351-0.645,2.765-5.436,3.54-6.889c0.775-1.451,4.668-8.836,5.805-11c1.211-2.309,3.852-7.344,4.226-8.043
		c0.373-0.699,0.549-1.158,0.143-1.305C88.734,51.953,88.352,52.025,88.064,52.562z"/>
	<path fill="#3D3D3F" d="M83.469,41.769c-1.236,2.224-3.722,7.052-5.321,10.048c-1.609,3.016-5.595,10.496-7.405,13.883
		c-1.809,3.391-4.294,8.416-4.95,9.662c-0.674,1.277-0.715,2.244,0.497,2.822c1.212,0.576,2.168,1.088,2.76,1.404
		c0.591,0.316,1.314,0.287,1.975-0.949c0.661-1.238,3.105-5.945,4.825-9.037c1.719-3.092,5.668-11.006,7.391-14.232
		c1.724-3.227,4.847-8.816,5.511-10.19s0.592-2.244-0.214-2.675c-0.807-0.431-1.922-1.092-2.703-1.44
		C85.052,40.716,84.212,40.431,83.469,41.769z"/>
</g>
<g>
	<path fill="#3D3D3F" d="M135.985,40.198c-1.027-0.778-4.21-1.815-9.772-1.854c-2.465-0.017-11.7-0.034-13.07-0.028
		c-3.56,0.016-8.756,0.027-9.805,0.161c-0.744,0.096-0.645,0.125-0.608,0.438c0.032,0.271-0.015,0.476,0.642,0.385
		c1.592-0.22,4.56-0.176,6.531-0.174c2.831,0.004,10.163,0.008,13.495-0.052c4.099-0.076,6.996,0.156,8.696,0.505
		c1.496,0.307,2.585,0.646,3.43,1.228c0.726,0.496,0.724,0.402,0.922,0.148C136.644,40.699,136.53,40.612,135.985,40.198z"/>
	<path fill="#3D3D3F" d="M133.957,47.262c-1.305-0.027-5.428,0.055-8.485,0.1c-3.059,0.045-9.585,0.137-11.686,0.137
		c-2.099,0-7.931-0.01-8.751,0.029c-0.82,0.041-1.465-0.064-1.48,0.531c-0.017,0.594,0.052,0.488,0.076,0.99
		c0.025,0.5,0.443,0.844,1.4,0.76c1.102-0.102,5.866-0.156,7.099-0.201c1.232-0.047,4.905-0.072,7.743-0.09
		c1.654-0.01,9.612-0.055,11.669-0.057c2.075-0.002,2.49-0.002,2.994-0.016c0.503-0.016,0.991,0.082,1.076-0.553
		c0.111-0.818-0.002-1.035-0.031-1.152C135.457,47.242,134.878,47.279,133.957,47.262z"/>
	<path fill="#3D3D3F" d="M130.371,41.074c-1.274-0.089-4.612,0.101-6.711,0.062c-2.1-0.037-7.122,0.01-11.048-0.015
		c-3.925-0.024-9.176,0.019-10.547,0.131c-1.372,0.112-1.837-0.169-1.859,1.385c-0.021,1.552,0.006,0.41-0.021,1.552
		c-0.028,1.143-0.047,1.041,0.02,1.748c0.057,0.598,0.184,0.988,0.96,1.008c0.777,0.018,5.962,0.02,7.928,0.023
		c1.943,0.006,9.439-0.033,12.406-0.084s7.639-0.02,8.593-0.117c0.953-0.096,1.043-0.562,0.989-1.107
		c-0.056-0.547,0.003-2.892-0.084-3.389C130.911,41.775,131.238,41.136,130.371,41.074z"/>
	<path fill="#3D3D3F" d="M127.375,39.585c-0.959,0-4.246,0.045-6.391,0.045s-7.165,0-9.768,0c-2.602,0-5.008-0.012-5.75,0
		c-0.727,0.012-0.834,0.134-0.822,0.457c0.008,0.235,0.156,0.59,0.594,0.593c0.549,0.005,4.563-0.09,5.796-0.09
		s7.48-0.033,9.312-0.046c1.951-0.013,6.207-0.045,6.801-0.045c0.593,0,0.958-0.046,0.912-0.365
		C128.013,39.813,127.831,39.585,127.375,39.585z"/>
	<path fill="#3D3D3F" d="M133.083,32.948c-1.904-0.033-5.971,0.029-8.512,0.029c-2.559,0-8.903,0.005-11.778,0.005
		s-7.071,0.132-8.124,0.137c-1.082,0.005-1.735,0.319-1.689,1.323s0.045,1.815,0.045,2.318c0,0.502,0.274,0.969,1.324,0.969
		c1.051,0,5.021-0.046,7.668,0c2.647,0.045,9.266-0.138,12.005-0.138c2.738,0,7.53,0.092,8.671,0.046
		c1.142-0.046,1.691-0.4,1.691-1.084c0-0.685,0.044-1.654-0.002-2.293C134.336,33.621,134.228,32.967,133.083,32.948z"/>
	<path fill="#3D3D3F" d="M131.311,26.413c-1.07,0.018-3.862-0.021-7.743,0.059c-2.01,0.042-8.258-0.051-10.996,0
		c-2.737,0.052-5.246-0.04-5.885-0.028c-0.64,0.012-1.137,0.25-1.121,1.116s0.091,1.542,0.091,2.547
		c0,0.917,0.019,0.671,0.042,1.091c0.021,0.415,0.05,1.181,0.781,1.271c0.73,0.091,5.11-0.075,7.348-0.051
		c2.292,0.024,7.515-0.183,11.395-0.094c3.879,0.088,5.062,0.06,6.203,0.045c0.946-0.013,1.404-0.338,1.393-0.932
		c-0.011-0.593-0.072-2.925-0.043-3.839C132.803,26.685,132.001,26.401,131.311,26.413z"/>
</g>
<g>
	<g>
		<path fill="#3D3D3F" d="M26.356,66.242c0.06-2.037,0.097-3.984,0.131-6.043c0.033-2.061-0.082-4.473-0.048-7.443
			c0.02-1.611-0.067-3.723-0.192-5.311c-0.278-2.012-1.099-1.896-3.254-1.877c-0.73,0.008-2.877,0.059-5.182,0.074
			c-2.782,0.021-5.789,0.004-6.741,0.031c-1.355,0.033-2.771,0.016-4.09,0.016c-1.549-0.002-2.967,0.014-4.005,0.018
			c-1.368,0.004-1.851,0.607-1.87,1.164c-0.055,1.564-0.112,3.084-0.039,4.426c0.072,1.342,0.079,2.871,0.018,4.279
			c-0.188,3.289,0.103,6.455-0.017,9.742c-0.122,3.475,0.088,7.07,0.102,10.369c0.011,2.691-0.39,4.367,1.5,4.375
			c1.303,0.004,7.092,0.162,8.591,0.041c2.246-0.186,4.113-0.092,6.459-0.148c1.676-0.041,5.214,0.025,6.859,0.018
			c1.336-0.004,1.803-0.723,1.798-2.25c-0.006-1.979,0.066-4.082,0.051-6.15C26.411,69.797,26.304,68.062,26.356,66.242z
			 M14.195,76.564c-0.749,0.012-3.355,0.055-4.093,0.057c-1.49,0.008-2.483,0.023-3.924,0.059c-0.671-0.062-1.275,0.004-1.934-0.006
			c-0.618,0.004-0.729-1.102,0.271-1.086c0.851,0.014,2.812-0.027,4.417,0c1.489,0.025,3.979-0.035,5.159-0.055
			C14.946,75.52,15.003,76.553,14.195,76.564z M12.741,74.441c-0.602,0.01-3.324,0.006-4.226-0.008
			c-0.901-0.016-4.542,0.166-4.664-0.062c-0.123-0.229-0.263-0.412-0.114-0.74c0.15-0.33,2.679-0.186,4.156-0.207
			c1.496-0.021,4.497-0.031,5.247-0.047c0.75-0.012,1.498-0.045,1.513,0.469C14.672,74.475,13.333,74.434,12.741,74.441z
			 M14.034,72.242c-0.617,0.045-3.572,0.002-5.048,0.076c-1.677,0.008-4.825,0.16-5.076-0.156c-0.252-0.318-0.219-0.418-0.017-0.727
			c0.202-0.311,7.372-0.182,8.2-0.246c0.469-0.002,1.754-0.105,2.354,0.141C15.046,71.576,14.651,72.199,14.034,72.242z
			 M23.146,75.967c-0.261,0.965-1.306,0.74-1.104-0.205C22.202,75.012,23.248,75.588,23.146,75.967z M23.44,66.021
			c-0.932,0.889-2.353,0.928-3.741,1.082c-1.455,0.164-3.691,0.328-5.928,0.34c-2.601,0.008-4.005-0.037-5.358-0.135
			c-1.077-0.078-3.577-0.129-4.27-1.049c-0.884-1.176-1.146-6.445-1.183-8.598C2.93,55.959,3.092,54.377,3.24,52.4
			c0.148-1.977,0.441-3.277,1.18-3.893c0.686-0.57,2.958-0.771,4.188-0.846c1.23-0.074,3.48-0.148,5.044-0.176
			c1.536-0.029,8.752-0.035,9.523,0.809c0.745,0.812,0.802,1.945,0.984,3.238c0.161,1.143,0.271,2.6,0.338,6.189
			C24.572,61.648,24.062,65.432,23.44,66.021z"/>
	</g>
	<g>
		<path fill="#3D3D3F" d="M6.94,56.264c1.322-0.84,2.472-1.809,3.483-2.973c0.192-0.223,0.597,1.43,1.077,2.584
			c0.317,0.764,1.577,0.43,1.255-0.346c-0.523-1.258-0.942-2.555-1.667-3.713c-0.2-0.32-0.754-0.479-1.021-0.135
			c-1.076,1.393-2.175,2.711-3.659,3.654C5.703,55.785,6.23,56.715,6.94,56.264L6.94,56.264z"/>
	</g>
	<g>
		<path fill="#3D3D3F" d="M16.549,56.441c1.298-0.742,2.45-1.678,3.277-2.889c0.268-0.391,0.53,1.646,0.927,3.211
			c0.207,0.814,1.462,0.469,1.255-0.346c-0.398-1.564-0.865-3.111-1.423-4.627c-0.17-0.459-0.944-0.729-1.189-0.154
			c-0.712,1.658-1.892,2.965-3.437,3.848C15.231,55.902,15.819,56.857,16.549,56.441L16.549,56.441z"/>
	</g>
</g>
<g>
	<g>
		<g>
			<path fill="#3D3D3F" d="M17.917,46.48c0.425-7.527,4.465-15.401,9.481-20.929c0.469-0.517-0.296-1.286-0.767-0.767
				c-5.206,5.737-9.357,13.877-9.799,21.695C16.793,47.18,17.878,47.176,17.917,46.48L17.917,46.48z"/>
		</g>
	</g>
	<g>
		<g>
			<path fill="#3D3D3F" d="M17.898,46.463c-0.337-4.945-1.827-10.433-5.129-14.247c-0.458-0.53-1.222,0.241-0.767,0.767
				c3.091,3.571,4.495,8.851,4.811,13.48C16.861,47.156,17.946,47.16,17.898,46.463L17.898,46.463z"/>
		</g>
	</g>
	<g>
		<g>
			<path fill="#3D3D3F" d="M27.812,22.524c-0.699,0.455-1.493,1.174-1.194,2.089c0.314,0.961,1.414,0.873,2.192,0.655
				c1-0.279,1.571-1.081,1.146-2.093C29.575,22.265,28.619,22.082,27.812,22.524c-0.307,0.167-0.033,0.636,0.273,0.468
				c0.673-0.368,1.245-0.074,1.464,0.649c0.226,0.746-0.613,1.047-1.165,1.178c-0.508,0.121-1.255,0.113-1.305-0.583
				c-0.039-0.538,0.63-1,1.006-1.245C28.377,22.802,28.105,22.332,27.812,22.524z"/>
		</g>
	</g>
	<g>
		<g>
			<path fill="#3D3D3F" d="M28.73,22.276c-0.057-0.969,0.91-1.896,1.65-2.352c0.569-0.342,2.363-1.282,2.961-0.569
				c0.541,0.654-0.683,1.965-1.082,2.363c-0.685,0.683-1.739,0.968-2.565,1.283"/>
			<g>
				<path fill="#3D3D3F" d="M29.001,22.276c0.042-1.585,2.295-2.902,3.751-2.908c1.199-0.004-0.416,1.879-0.594,2.066
					c-0.676,0.71-1.645,0.975-2.536,1.305c-0.325,0.12-0.184,0.645,0.145,0.522c1.289-0.478,2.371-0.911,3.262-1.997
					c0.405-0.494,1.219-1.761,0.331-2.254c-0.9-0.5-2.057,0.102-2.87,0.537c-1.023,0.547-2,1.508-2.032,2.728
					C28.45,22.626,28.993,22.625,29.001,22.276L29.001,22.276z"/>
			</g>
		</g>
		<g>
			<path fill="#3D3D3F" d="M29.876,23.141c0.94-0.341,5.829-1.451,5.658,0.343c-0.086,0.969-1.395,1.253-2.165,1.338
				c-1.138,0.086-2.42-0.391-3.473-0.675"/>
			<g>
				<path fill="#3D3D3F" d="M29.949,23.402c1.301-0.448,2.77-0.69,4.144-0.632c0.352,0.015,0.758,0.075,1.04,0.304
					c0.759,0.617-0.75,1.259-1.121,1.363c-1.35,0.378-2.751-0.189-4.043-0.55c-0.337-0.095-0.48,0.429-0.145,0.522
					c1.626,0.455,3.178,0.987,4.836,0.39c0.716-0.258,1.609-1.257,0.939-2.013c-0.608-0.688-1.77-0.596-2.591-0.536
					c-1.071,0.078-2.188,0.28-3.205,0.63C29.476,22.993,29.617,23.517,29.949,23.402L29.949,23.402z"/>
			</g>
		</g>
		<g>
			<path fill="#3D3D3F" d="M29.896,24.308c0.854,0.684,2.079,1.14,2.762,2.051c0.398,0.542,1.309,1.964,0.683,2.621
				c-0.883,0.967-2.705-0.542-3.247-1.14c-0.768-0.882-0.614-1.87-1.184-2.809"/>
			<g>
				<path fill="#3D3D3F" d="M29.76,24.542c0.762,0.578,1.639,0.981,2.356,1.618c0.55,0.489,1.875,2.433,0.674,2.845
					c-0.792,0.272-1.91-0.764-2.407-1.255c-0.75-0.739-0.752-1.955-1.238-2.855c-0.166-0.308-0.634-0.034-0.468,0.273
					c0.354,0.658,0.413,1.399,0.728,2.067c0.274,0.581,0.66,0.993,1.152,1.396c0.741,0.607,1.837,1.267,2.775,0.715
					c0.985-0.579,0.281-1.98-0.132-2.671c-0.748-1.25-2.05-1.757-3.166-2.602C29.754,23.863,29.485,24.334,29.76,24.542
					L29.76,24.542z"/>
			</g>
		</g>
		<g>
			<path fill="#3D3D3F" d="M28.69,25.153c-0.086,1.139,0.324,2.745,0.381,3.884c0.056,0.798-0.498,1.388-1.384,0.771
				c-1.381-0.962-1.257-3.211-0.205-4.635"/>
			<g>
				<path fill="#3D3D3F" d="M28.419,25.153c-0.03,0.678,0.053,1.344,0.146,2.014c0.063,0.452,0.136,0.903,0.191,1.356
					c0.02,0.171,0.035,0.342,0.044,0.514c0.08,0.599-0.287,0.746-1.101,0.441c-1.28-0.994-0.753-3.055,0.017-4.168
					c0.2-0.288-0.271-0.559-0.468-0.273c-0.955,1.38-1.476,4.437,0.622,5.183c0.718,0.256,1.466-0.103,1.471-0.951
					c0.007-1.382-0.442-2.727-0.38-4.116C28.977,24.803,28.434,24.805,28.419,25.153L28.419,25.153z"/>
			</g>
		</g>
		<g>
			<path fill="#3D3D3F" d="M26.984,24.937c-0.741,0.399-5.118,1.309-4.805-0.371c0.171-0.969,1.396-1.225,2.193-1.139
				c0.599,0.057,1.859,0.362,2.407,0.66"/>
			<g>
				<path fill="#3D3D3F" d="M26.848,24.703c-1.043,0.513-2.569,0.694-3.705,0.524c-1.326-0.198-0.383-1.324,0.487-1.51
					c0.924-0.197,2.188,0.2,3.013,0.604c0.312,0.153,0.588-0.314,0.273-0.468c-1.081-0.529-2.446-0.869-3.641-0.614
					c-0.724,0.155-1.814,1.086-1.277,1.922c0.465,0.724,1.529,0.679,2.282,0.635c0.933-0.055,1.995-0.208,2.841-0.625
					C27.435,25.017,27.16,24.549,26.848,24.703L26.848,24.703z"/>
			</g>
		</g>
		<g>
			<path fill="#3D3D3F" d="M26.527,23.908c-0.883-0.17-3.759-3.561-2.506-4.186c1.282-0.627,3.065,2.367,3.549,3.165"/>
			<g>
				<path fill="#3D3D3F" d="M26.6,23.646c-0.599-0.161-1.122-0.849-1.505-1.297c-0.471-0.551-1.072-1.321-1.114-2.077
					c-0.029-0.532,0.665-0.339,0.931-0.198c0.389,0.206,0.704,0.563,0.992,0.888c0.555,0.625,1,1.349,1.433,2.062
					c0.181,0.298,0.65,0.026,0.468-0.273c-0.584-0.964-1.206-1.928-2.033-2.704c-0.48-0.451-1.724-1.151-2.199-0.276
					c-0.443,0.816,0.31,1.86,0.77,2.494c0.497,0.684,1.247,1.673,2.113,1.905C26.793,24.26,26.937,23.736,26.6,23.646L26.6,23.646z"
					/>
			</g>
		</g>
		<g>
			<path fill="#3D3D3F" d="M27.926,22.597c-0.583-0.582-1.304-1.904-1.56-2.559c-0.314-0.798-0.427-2.108,0.256-2.791
				c0.541-0.541,1.025,0.142,1.31,0.626c0.398,0.769,0.685,3.709,0.456,4.562"/>
			<g>
				<path fill="#3D3D3F" d="M28.118,22.405c-0.563-0.611-0.97-1.348-1.336-2.089c-0.206-0.417-0.322-0.834-0.379-1.296
					c-0.017-0.187-0.018-0.373-0.004-0.559c0.024-0.687,0.907-1.081,1.298-0.45c0.367,0.593,0.373,1.584,0.438,2.247
					c0.067,0.681,0.135,1.432-0.01,2.107c-0.074,0.341,0.449,0.486,0.522,0.145c0.233-1.082,0.287-5.729-1.581-5.729
					c-1.166,0-1.272,1.72-1.173,2.515c0.156,1.253,1.003,2.585,1.839,3.495C27.971,23.047,28.354,22.662,28.118,22.405
					L28.118,22.405z"/>
			</g>
		</g>
	</g>
	<g>
		<g>
			<path fill="#3D3D3F" d="M11.315,30.487c-0.635,0.131-0.905,0.664-0.955,1.267c-0.056,0.667,0.402,1.009,1.031,1.036
				c0.678,0.029,1.453-0.367,1.469-1.108c0.016-0.742-0.83-1.205-1.472-1.205c-0.35,0-0.35,0.542,0,0.542
				c0.388,0,0.883,0.22,0.93,0.663c0.051,0.482-0.701,0.575-1.032,0.562c-0.367-0.016-0.402-0.273-0.378-0.56
				c0.029-0.346,0.205-0.602,0.552-0.674C11.802,30.939,11.657,30.417,11.315,30.487z"/>
		</g>
	</g>
	<g>
		<g>
			<path fill="#3D3D3F" d="M11.415,30.547c-0.294-0.999,0.655-3.559,1.817-3.158c0.537,0.18,0.664,1.024,0.613,1.509
				c-0.033,0.732-0.857,1.641-1.355,2.125"/>
			<g>
				<path fill="#3D3D3F" d="M11.676,30.475c-0.212-0.882,0.262-2.27,1.029-2.773c0.724-0.474,0.898,0.757,0.869,1.196
					c-0.05,0.752-0.772,1.435-1.276,1.933c-0.249,0.246,0.135,0.629,0.384,0.384c0.685-0.678,1.377-1.455,1.444-2.457
					c0.051-0.761-0.298-1.597-1.123-1.682c-1.436-0.147-2.092,2.536-1.849,3.543C11.235,30.959,11.758,30.815,11.676,30.475
					L11.676,30.475z"/>
			</g>
		</g>
		<g>
			<path fill="#3D3D3F" d="M12.585,31.222c0.807-0.625,3.296-2.502,3.987-1.175c0.821,1.583-2.885,1.809-3.764,1.746"/>
			<g>
				<path fill="#3D3D3F" d="M12.722,31.456c0.547-0.421,1.11-0.818,1.713-1.155c0.39-0.217,0.817-0.404,1.267-0.445
					c0.413-0.038,0.867,0.366,0.675,0.798c-0.239,0.537-1.233,0.663-1.73,0.752c-0.599,0.107-1.23,0.151-1.838,0.116
					c-0.35-0.021-0.348,0.522,0,0.542c1.096,0.064,4.21-0.016,4.148-1.667c-0.033-0.879-0.89-1.161-1.618-1.036
					c-1.063,0.183-2.059,0.985-2.89,1.626C12.176,31.198,12.445,31.67,12.722,31.456L12.722,31.456z"/>
			</g>
		</g>
		<g>
			<path fill="#3D3D3F" d="M12.898,32.072c0.303-0.079,3.614,0.315,4.04,1.348c0.203,0.493-0.247,0.631-0.73,0.748
				c-1.062,0.308-2.924-1.081-3.828-1.584"/>
			<g>
				<path fill="#3D3D3F" d="M12.971,32.333c1-0.154,2.546,0.333,3.383,0.843c0.611,0.372-0.023,0.737-0.486,0.764
					c-0.433,0.025-0.906-0.211-1.282-0.387c-0.723-0.339-1.377-0.808-2.068-1.204c-0.304-0.175-0.577,0.294-0.273,0.468
					c1.028,0.591,2.003,1.329,3.173,1.613c0.768,0.187,2.006-0.103,1.782-1.083c-0.166-0.729-1.384-1.042-1.971-1.208
					c-0.715-0.202-1.65-0.445-2.403-0.329C12.481,31.864,12.628,32.386,12.971,32.333L12.971,32.333z"/>
			</g>
		</g>
		<g>
			<path fill="#3D3D3F" d="M12.339,32.571c-0.107,0.942,1.589,3.189,0.257,3.854c-1.484,0.747-1.443-3.146-1.07-3.858"/>
			<g>
				<path fill="#3D3D3F" d="M12.068,32.571c-0.028,0.612,0.28,1.214,0.485,1.775c0.141,0.384,0.266,0.777,0.285,1.189
					c0.016,0.351-0.335,0.878-0.738,0.672c-0.494-0.253-0.498-1.366-0.517-1.818c-0.023-0.521-0.048-1.199,0.177-1.685
					c0.146-0.315-0.321-0.591-0.468-0.273c-0.311,0.671-0.282,1.533-0.235,2.252c0.043,0.678,0.163,1.682,0.845,2.031
					c0.673,0.344,1.443-0.38,1.472-1.039c0.048-1.1-0.812-2.037-0.764-3.104C12.626,32.221,12.084,32.223,12.068,32.571
					L12.068,32.571z"/>
			</g>
		</g>
		<g>
			<path fill="#3D3D3F" d="M11.036,32.572c-0.589,1.059-1.833,3.329-3.349,2.684c-1.43-0.631,1.784-2.93,3.004-3.055"/>
			<g>
				<path fill="#3D3D3F" d="M10.802,32.436c-0.39,0.701-0.792,1.394-1.341,1.985c-0.277,0.299-0.605,0.538-1,0.65
					c-0.248,0.071-0.931,0.025-0.852-0.369c0.117-0.581,0.896-1.093,1.339-1.402c0.532-0.372,1.161-0.749,1.814-0.838
					c0.345-0.047,0.197-0.569-0.145-0.522c-0.849,0.116-1.688,0.669-2.346,1.188c-0.531,0.419-1.359,1.092-1.188,1.869
					c0.197,0.895,1.564,0.66,2.108,0.347c0.96-0.551,1.559-1.702,2.077-2.634C11.44,32.403,10.972,32.13,10.802,32.436
					L10.802,32.436z"/>
			</g>
		</g>
		<g>
			<path fill="#3D3D3F" d="M10.381,31.965c-0.868,0.3-1.879,0.122-2.725-0.227c-0.456-0.195-1.594-0.911-1.301-1.606
				c0.252-0.604,1.578-0.233,2.001-0.059c0.67,0.295,1.607,0.683,2.215,1.102"/>
			<g>
				<path fill="#3D3D3F" d="M10.309,31.704c-0.797,0.229-1.547,0.125-2.322-0.128c-0.293-0.096-0.545-0.25-0.798-0.42
					c-0.19-0.132-0.355-0.292-0.493-0.478c0.011-0.461,0.178-0.662,0.5-0.603c1.085,0.014,2.36,0.763,3.239,1.334
					c0.294,0.191,0.565-0.278,0.273-0.468c-0.567-0.37-4.206-2.48-4.615-0.882c-0.211,0.826,0.515,1.393,1.151,1.774
					c0.934,0.56,2.175,0.689,3.209,0.392C10.789,32.13,10.646,31.607,10.309,31.704L10.309,31.704z"/>
			</g>
		</g>
		<g>
			<path fill="#3D3D3F" d="M10.668,30.936c-0.818-0.188-2.642-2.815-1.787-3.642c0.609-0.645,2.186,2.802,2.297,3.258"/>
			<g>
				<path fill="#3D3D3F" d="M10.741,30.675c-0.624-0.192-1.098-1.004-1.399-1.528c-0.198-0.343-0.358-0.728-0.406-1.124
					c-0.027-0.222,0.007-0.668,0.285-0.432c0.464,0.395,0.765,1.04,1.043,1.568c0.245,0.463,0.513,0.958,0.654,1.465
					c0.093,0.336,0.617,0.193,0.522-0.145c-0.216-0.777-0.657-1.541-1.062-2.231c-0.274-0.468-0.792-1.435-1.47-1.283
					c-0.829,0.185-0.461,1.552-0.249,2.021c0.364,0.805,1.03,1.932,1.938,2.21C10.932,31.3,11.074,30.777,10.741,30.675
					L10.741,30.675z"/>
			</g>
		</g>
	</g>
</g>
<g>
	<g>
		<g>
			<path fill="#3D3D3F" d="M175.428,22.55c-0.284-5.438-2.913-11.165-6.381-15.312c-0.305-0.364-0.821,0.159-0.52,0.52
				c3.35,4.005,5.892,9.545,6.166,14.792C174.718,23.022,175.454,23.024,175.428,22.55L175.428,22.55z"/>
		</g>
	</g>
	<g>
		<g>
			<path fill="#3D3D3F" d="M175.44,22.538c0.204-3.232,1.07-6.953,3.127-9.532c0.293-0.367-0.225-0.89-0.52-0.52
				c-2.196,2.753-3.124,6.596-3.342,10.051C174.675,23.012,175.411,23.009,175.44,22.538L175.44,22.538z"/>
		</g>
	</g>
	<g>
		<g>
			<path fill="#3D3D3F" d="M168.088,5.954c0.274,0.198,0.708,0.543,0.645,0.939c-0.077,0.489-0.565,0.434-0.918,0.344
				c-0.485-0.124-0.781-0.428-0.63-0.956C167.313,5.836,167.728,5.74,168.088,5.954c0.204,0.122,0.389-0.196,0.186-0.317
				c-1.271-0.756-2.153,1.361-0.799,1.872c0.564,0.213,1.245,0.292,1.551-0.336c0.304-0.624-0.294-1.206-0.752-1.535
				C168.082,5.498,167.898,5.817,168.088,5.954z"/>
		</g>
	</g>
	<g>
		<g>
			<path fill="#3D3D3F" d="M167.671,5.455c0.038-0.684-0.591-1.339-1.073-1.661c-0.37-0.242-1.538-0.905-1.926-0.402
				c-0.353,0.462,0.443,1.388,0.703,1.669c0.445,0.482,1.131,0.684,1.669,0.905"/>
			<g>
				<path fill="#3D3D3F" d="M167.855,5.455c-0.02-0.845-0.637-1.5-1.325-1.919c-0.507-0.309-1.297-0.728-1.874-0.379
					c-0.589,0.356-0.051,1.216,0.212,1.58c0.549,0.759,1.282,1.069,2.128,1.408c0.22,0.088,0.314-0.268,0.098-0.354
					c-0.913-0.366-2.196-0.946-2.325-2.096c-0.08-0.711,1.379,0.045,1.576,0.159c0.575,0.334,1.127,0.903,1.144,1.602
					C167.493,5.692,167.861,5.692,167.855,5.455L167.855,5.455z"/>
			</g>
		</g>
		<g>
			<path fill="#3D3D3F" d="M166.926,6.066c-0.611-0.241-3.793-1.025-3.683,0.242c0.057,0.683,0.908,0.884,1.41,0.945
				c0.74,0.061,1.574-0.275,2.259-0.476"/>
			<g>
				<path fill="#3D3D3F" d="M166.975,5.889c-0.891-0.334-3.044-0.969-3.779-0.068c-0.449,0.551,0.148,1.197,0.639,1.417
					c1.027,0.462,2.126,0.021,3.127-0.284c0.227-0.069,0.13-0.424-0.098-0.354c-0.787,0.239-1.599,0.581-2.436,0.433
					c-0.713-0.126-1.504-1-0.446-1.214c0.896-0.181,2.051,0.109,2.896,0.425C167.1,6.327,167.195,5.972,166.975,5.889L166.975,5.889
					z"/>
			</g>
		</g>
		<g>
			<path fill="#3D3D3F" d="M166.913,6.89c-0.556,0.483-1.352,0.806-1.797,1.449c-0.259,0.383-0.852,1.388-0.443,1.85
				c0.573,0.684,1.76-0.382,2.111-0.804c0.5-0.623,0.399-1.32,0.771-1.984"/>
			<g>
				<path fill="#3D3D3F" d="M166.783,6.76c-0.784,0.643-1.592,1.021-2.099,1.939c-0.259,0.471-0.604,1.361-0.009,1.742
					c0.584,0.375,1.227-0.042,1.701-0.409c0.274-0.212,0.5-0.461,0.699-0.744c0.364-0.518,0.36-1.232,0.638-1.795
					c0.104-0.212-0.214-0.398-0.318-0.186c-0.317,0.647-0.319,1.46-0.804,2.019c-0.351,0.404-0.979,0.981-1.559,0.888
					c-0.786-0.127,0.041-1.478,0.242-1.783c0.411-0.625,1.201-0.947,1.768-1.412C167.226,6.87,166.964,6.611,166.783,6.76
					L166.783,6.76z"/>
			</g>
		</g>
		<g>
			<path fill="#3D3D3F" d="M167.698,7.488c0.057,0.803-0.211,1.938-0.247,2.743c-0.037,0.563,0.322,0.979,0.9,0.544
				c0.898-0.679,0.817-2.268,0.133-3.273"/>
			<g>
				<path fill="#3D3D3F" d="M167.514,7.488c0.038,0.922-0.19,1.826-0.247,2.743c-0.026,0.42,0.269,1.097,0.813,0.886
					c1.491-0.575,1.26-2.609,0.562-3.708c-0.127-0.199-0.445-0.015-0.318,0.186c0.547,0.86,0.785,2.139,0.019,2.948
					c-0.535,0.194-0.771,0.09-0.709-0.312c0.006-0.122,0.016-0.243,0.028-0.363c0.029-0.321,0.08-0.641,0.124-0.96
					c0.063-0.472,0.115-0.943,0.095-1.419C167.872,7.251,167.504,7.25,167.514,7.488L167.514,7.488z"/>
			</g>
		</g>
		<g>
			<path fill="#3D3D3F" d="M168.808,7.334c0.482,0.282,3.33,0.924,3.127-0.262c-0.111-0.685-0.908-0.866-1.428-0.804
				c-0.389,0.04-1.209,0.256-1.565,0.466"/>
			<g>
				<path fill="#3D3D3F" d="M168.715,7.493c0.518,0.276,1.156,0.366,1.73,0.43c0.452,0.05,1.296,0.103,1.576-0.371
					c0.319-0.538-0.129-1.189-0.664-1.365c-0.807-0.265-1.781,0.003-2.509,0.389c-0.21,0.111-0.023,0.428,0.186,0.317
					c0.506-0.268,1.154-0.449,1.729-0.451c0.355-0.001,0.714,0.143,0.917,0.442c0.219,0.324,0.016,0.554-0.279,0.642
					c-0.709,0.211-1.853-0.004-2.5-0.35C168.692,7.064,168.506,7.381,168.715,7.493L168.715,7.493z"/>
			</g>
		</g>
		<g>
			<path fill="#3D3D3F" d="M169.106,6.607c0.573-0.12,2.445-2.514,1.63-2.956c-0.834-0.443-1.994,1.672-2.31,2.235"/>
			<g>
				<path fill="#3D3D3F" d="M169.155,6.785c0.57-0.167,1.017-0.833,1.342-1.289c0.295-0.412,0.829-1.204,0.568-1.745
					c-0.279-0.579-0.956-0.296-1.329,0.002c-0.644,0.514-1.073,1.334-1.469,2.041c-0.115,0.207,0.202,0.393,0.318,0.186
					c0.234-0.419,0.479-0.831,0.756-1.224c0.138-0.197,1.197-1.501,1.407-0.798c0.133,0.448-0.404,1.122-0.642,1.454
					c-0.239,0.334-0.631,0.896-1.05,1.019C168.831,6.497,168.927,6.852,169.155,6.785L169.155,6.785z"/>
			</g>
		</g>
		<g>
			<path fill="#3D3D3F" d="M168.196,5.683c0.379-0.412,0.849-1.345,1.015-1.808c0.204-0.563,0.278-1.488-0.166-1.97
				c-0.353-0.382-0.668,0.1-0.853,0.442c-0.26,0.542-0.445,2.619-0.297,3.222"/>
			<g>
				<path fill="#3D3D3F" d="M168.326,5.812c0.565-0.668,1.034-1.548,1.192-2.414c0.078-0.434,0.055-1.77-0.646-1.802
					c-1.371-0.063-1.316,3.198-1.154,4.021c0.047,0.232,0.4,0.134,0.355-0.098c-0.185-0.93-0.036-2.146,0.26-3.037
					c0.087-0.292,0.308-0.406,0.662-0.344c0.112,0.192,0.175,0.399,0.188,0.622c0.043,0.358-0.04,0.726-0.148,1.065
					c-0.194,0.603-0.56,1.244-0.968,1.727C167.914,5.732,168.172,5.994,168.326,5.812L168.326,5.812z"/>
			</g>
		</g>
	</g>
	<g>
		<g>
			<path fill="#3D3D3F" d="M178.908,11.617c0.272,0.069,0.601,0.739,0.168,0.877c-0.18,0.057-0.4-0.023-0.556-0.107
				c-0.524-0.28,0.154-0.764,0.437-0.764c0.237,0,0.237-0.367,0-0.367c-0.435,0-0.989,0.346-0.965,0.842
				c0.024,0.511,0.458,0.741,0.929,0.775c0.997,0.072,0.878-1.41,0.085-1.611C178.776,11.205,178.678,11.559,178.908,11.617z"/>
		</g>
	</g>
	<g>
		<g>
			<path fill="#3D3D3F" d="M178.939,11.296c0.19-0.704-0.426-2.513-1.183-2.23c-0.35,0.128-0.432,0.724-0.398,1.066
				c0.021,0.518,0.558,1.16,0.882,1.5"/>
			<g>
				<path fill="#3D3D3F" d="M179.116,11.345c0.172-0.781-0.224-2.42-1.205-2.492c-0.552-0.041-0.716,0.663-0.742,1.072
					c-0.047,0.721,0.48,1.344,0.941,1.838c0.162,0.174,0.422-0.087,0.26-0.26c-0.323-0.347-0.632-0.72-0.791-1.173
					c-0.107-0.308-0.065-1.214,0.433-1.092c0.616,0.151,0.861,1.507,0.751,2.01C178.711,11.479,179.065,11.577,179.116,11.345
					L179.116,11.345z"/>
			</g>
		</g>
		<g>
			<path fill="#3D3D3F" d="M178.177,11.774c-0.524-0.441-2.145-1.768-2.594-0.83c-0.535,1.118,1.877,1.277,2.448,1.233"/>
			<g>
				<path fill="#3D3D3F" d="M178.307,11.644c-0.592-0.497-2.685-2.139-2.975-0.507c-0.204,1.153,1.992,1.269,2.699,1.224
					c0.235-0.015,0.237-0.382,0-0.367c-0.644,0.041-1.874,0.016-2.288-0.569c-0.158-0.223,0.035-0.549,0.265-0.616
					c0.251-0.074,0.591,0.11,0.802,0.219c0.449,0.229,0.853,0.554,1.237,0.876C178.228,12.055,178.489,11.796,178.307,11.644
					L178.307,11.644z"/>
			</g>
		</g>
		<g>
			<path fill="#3D3D3F" d="M177.973,12.375c-0.196-0.056-2.351,0.222-2.629,0.952c-0.131,0.349,0.161,0.446,0.476,0.527
				c0.69,0.217,1.903-0.763,2.49-1.118"/>
			<g>
				<path fill="#3D3D3F" d="M178.022,12.197c-0.456-0.078-1.008,0.085-1.443,0.197c-0.425,0.109-1.303,0.358-1.412,0.883
					c-0.123,0.596,0.517,0.868,1.044,0.776c0.826-0.144,1.5-0.728,2.192-1.16c0.2-0.125,0.017-0.443-0.186-0.317
					c-0.405,0.253-0.793,0.533-1.206,0.774c-0.244,0.142-0.5,0.255-0.772,0.327c-0.36,0.095-0.955-0.188-0.51-0.531
					c0.476-0.367,1.586-0.699,2.195-0.595C178.156,12.591,178.255,12.237,178.022,12.197L178.022,12.197z"/>
			</g>
		</g>
		<g>
			<path fill="#3D3D3F" d="M178.338,12.726c0.068,0.666-1.035,2.253-0.168,2.723c0.966,0.528,0.938-2.222,0.696-2.724"/>
			<g>
				<path fill="#3D3D3F" d="M178.155,12.726c0.027,0.742-0.513,1.41-0.5,2.168c0.007,0.435,0.5,1.014,0.971,0.752
					c0.44-0.244,0.502-0.88,0.546-1.325c0.053-0.532,0.068-1.186-0.146-1.689c-0.093-0.217-0.41-0.03-0.318,0.186
					c0.252,0.59,0.24,1.918-0.166,2.434c-0.166,0.21-0.428-0.043-0.493-0.214c-0.104-0.272,0.024-0.625,0.102-0.887
					c0.136-0.46,0.391-0.932,0.372-1.424C178.513,12.489,178.146,12.488,178.155,12.726L178.155,12.726z"/>
			</g>
		</g>
		<g>
			<path fill="#3D3D3F" d="M179.185,12.728c0.384,0.748,1.193,2.351,2.18,1.896c0.931-0.446-1.161-2.069-1.955-2.158"/>
			<g>
				<path fill="#3D3D3F" d="M179.026,12.82c0.328,0.638,0.69,1.399,1.299,1.817c0.398,0.274,1.164,0.415,1.414-0.139
					c0.217-0.478-0.344-1.008-0.652-1.289c-0.437-0.397-1.029-0.83-1.628-0.921c-0.231-0.036-0.331,0.319-0.098,0.354
					c0.72,0.11,1.825,0.861,2.045,1.58c0.075,0.246-0.274,0.295-0.438,0.295c-0.3,0-0.562-0.274-0.749-0.477
					c-0.373-0.403-0.626-0.922-0.874-1.406C179.236,12.424,178.918,12.61,179.026,12.82L179.026,12.82z"/>
			</g>
		</g>
		<g>
			<path fill="#3D3D3F" d="M179.611,12.299c0.565,0.211,1.223,0.085,1.774-0.16c0.296-0.138,1.035-0.643,0.846-1.135
				c-0.164-0.427-1.026-0.165-1.302-0.042c-0.437,0.209-1.046,0.483-1.441,0.78"/>
			<g>
				<path fill="#3D3D3F" d="M179.562,12.476c0.692,0.215,1.452,0.092,2.079-0.267c0.445-0.255,0.902-0.703,0.768-1.254
					c-0.272-1.111-2.653,0.373-3.014,0.628c-0.191,0.136-0.009,0.455,0.186,0.317c0.604-0.427,1.4-0.899,2.156-0.947
					c0.46-0.029,0.263,0.474,0.076,0.667c-0.127,0.132-0.287,0.231-0.445,0.321c-0.505,0.29-1.16,0.35-1.708,0.18
					C179.433,12.051,179.336,12.406,179.562,12.476L179.562,12.476z"/>
			</g>
		</g>
		<g>
			<path fill="#3D3D3F" d="M179.424,11.571c0.532-0.131,1.72-1.988,1.164-2.572c-0.397-0.455-1.424,1.979-1.496,2.302"/>
			<g>
				<path fill="#3D3D3F" d="M179.473,11.749c0.717-0.237,2.152-2.409,1.143-2.956c-0.711-0.384-1.582,1.999-1.701,2.459
					c-0.059,0.23,0.296,0.327,0.355,0.098c0.183-0.711,0.591-1.596,1.092-2.135c0.189-0.204,0.189,0.163,0.184,0.3
					c-0.011,0.274-0.145,0.558-0.264,0.798c-0.177,0.358-0.498,0.947-0.906,1.082C179.152,11.468,179.248,11.823,179.473,11.749
					L179.473,11.749z"/>
			</g>
		</g>
	</g>
</g>
<g>
	<g>
		<path fill="#FFE88D" d="M127.436,77.484c0,0.914-0.645,1.922-1.559,1.922c-6.151,0-6.151-0.111-12.303-0.111
			s-6.151-0.393-12.303-0.393c-0.913,0-1.457-0.504-1.457-1.418c0-6.152-0.063-6.152-0.063-12.303c0-6.152-0.386-6.152-0.386-12.305
			c0-0.914,0.993-1.645,1.906-1.645c6.151,0,6.151-0.275,12.303-0.275s6.151,0.188,12.303,0.188c0.914,0,1.726,0.818,1.726,1.732
			c0,6.152-0.076,6.152-0.11,12.305C127.458,71.332,127.436,71.332,127.436,77.484z"/>
		<path fill="none" stroke="#F7B234" stroke-width="1.3671" stroke-linejoin="round" stroke-miterlimit="10" d="M127.436,77.484
			c0,0.914-0.645,1.922-1.559,1.922c-6.151,0-6.151-0.111-12.303-0.111s-6.151-0.393-12.303-0.393c-0.913,0-1.457-0.504-1.457-1.418
			c0-6.152-0.063-6.152-0.063-12.303c0-6.152-0.386-6.152-0.386-12.305c0-0.914,0.993-1.645,1.906-1.645
			c6.151,0,6.151-0.275,12.303-0.275s6.151,0.188,12.303,0.188c0.914,0,1.726,0.818,1.726,1.732c0,6.152-0.076,6.152-0.11,12.305
			C127.458,71.332,127.436,71.332,127.436,77.484z"/>
	</g>
	<g>
		
			<path fill="#F7B234" stroke="#F7B234" stroke-width="0.3906" stroke-linecap="round" stroke-linejoin="round" stroke-miterlimit="10" d="
			M107.529,68.908l0.06-10.061c0-1.697-0.01-3.018-0.029-3.965l0.029-0.029c1.578-0.434,2.855-0.652,3.832-0.652
			s1.874,0.055,2.692,0.164c0.818,0.107,1.638,0.369,2.456,0.783s1.484,1.066,1.998,1.953c0.513,0.889,0.769,2.012,0.769,3.373
			s-0.483,2.852-1.449,4.469c-0.1,0.178-0.025,0.414,0.222,0.711c0.246,0.295,0.404,0.488,0.474,0.576
			c0.068,0.09,0.227,0.301,0.474,0.637c0.246,0.336,0.399,0.576,0.458,0.725c0.06,0.148,0.163,0.385,0.311,0.711
			c0.148,0.324,0.237,0.611,0.267,0.857c0.029,0.248,0.045,0.537,0.045,0.873s-0.045,0.76-0.134,1.273
			c-0.089,0.512-0.281,1.029-0.577,1.553s-0.626,0.941-0.991,1.258s-0.833,0.572-1.405,0.77c-1.085,0.414-2.545,0.611-4.38,0.592
			c-0.454,0-1.203-0.02-2.249-0.059l-2.101-0.119c-0.336,0-0.553-0.02-0.651-0.059C107.569,73.92,107.529,71.809,107.529,68.908z
			 M111.909,71.217l1.124,0.029c0.789,0,1.317-0.084,1.583-0.252c0.267-0.166,0.479-0.34,0.637-0.518
			c0.217-0.295,0.325-0.631,0.325-1.006s-0.079-0.77-0.236-1.184c-0.276-0.533-0.701-0.867-1.272-1.006
			c-0.296-0.078-0.73-0.133-1.303-0.162s-0.907-0.055-1.006-0.074c-0.236,0.928-0.354,1.74-0.354,2.441
			c0,0.699,0.147,1.268,0.443,1.701L111.909,71.217z M111.671,59.529l-0.029,1.982c0,0.65,0.049,1.123,0.148,1.42
			c0.414,0.059,0.788,0.088,1.124,0.088c1.203,0,1.973-0.324,2.309-0.977c0.256-0.473,0.384-0.848,0.384-1.123
			c0-0.277-0.039-0.494-0.118-0.652c-0.296-0.572-0.729-0.916-1.302-1.035s-1.065-0.178-1.479-0.178s-0.76,0.07-1.036,0.207
			C111.671,59.303,111.671,59.391,111.671,59.529z"/>
	</g>
</g>
<g>
	<g>
		<path fill="#B3D5A7" d="M158,51.953c0.913,0.027,1.604,0.523,1.578,1.438c-0.182,6.148-0.117,6.15-0.299,12.299
			c-0.181,6.148,0.081,6.156-0.1,12.307c-0.026,0.912-1.075,1.461-1.988,1.434c-6.148-0.18-6.146-0.287-12.295-0.469
			c-6.148-0.182-6.163,0.297-12.312,0.115c-0.913-0.025-1.448-0.994-1.422-1.906c0.182-6.15-0.045-6.156,0.137-12.305
			c0.181-6.15,0.288-6.146,0.47-12.295c0.026-0.914,0.737-1.869,1.65-1.844c6.148,0.182,6.141,0.416,12.286,0.688
			C151.853,51.686,151.85,51.773,158,51.953z"/>
		<path fill="none" stroke="#6AB032" stroke-width="1.3671" stroke-linejoin="round" stroke-miterlimit="10" d="M158,51.953
			c0.913,0.027,1.604,0.523,1.578,1.438c-0.182,6.148-0.117,6.15-0.299,12.299c-0.181,6.148,0.081,6.156-0.1,12.307
			c-0.026,0.912-1.075,1.461-1.988,1.434c-6.148-0.18-6.146-0.287-12.295-0.469c-6.148-0.182-6.163,0.297-12.312,0.115
			c-0.913-0.025-1.448-0.994-1.422-1.906c0.182-6.15-0.045-6.156,0.137-12.305c0.181-6.15,0.288-6.146,0.47-12.295
			c0.026-0.914,0.737-1.869,1.65-1.844c6.148,0.182,6.141,0.416,12.286,0.688C151.853,51.686,151.85,51.773,158,51.953z"/>
	</g>
	<g>
		
			<path fill="#6AB032" stroke="#B3D5A7" stroke-width="0.3906" stroke-linecap="round" stroke-linejoin="round" stroke-miterlimit="10" d="
			M150.983,67.51l0.369-6.502c0.014-0.455,0.016-0.869,0.007-1.244l0.06,0.002c0.475-0.025,1.066-0.027,1.776-0.008
			c0.71,0.021,1.407,0.141,2.091,0.357l-0.158,8.404c-0.04,1.361-0.126,2.602-0.258,3.723l-13.876-0.262
			c-2.229-0.064-4.346-0.188-6.354-0.365c-0.079-3.336-0.084-6.209-0.013-8.613c0.071-2.406,0.137-3.619,0.196-3.637
			c0.416-0.047,0.859-0.062,1.333-0.049l2.867,0.172l0.029,0.002c0.173,0.873,0.236,2.02,0.194,3.439l-0.045,1.539
			c-0.033,1.104-0.04,2.031-0.022,2.781l-0.003,0.088l0.028,0.031l2.571,0.164c0.513,0.016,0.819-0.025,0.921-0.121
			c0.091-1.062,0.156-2.275,0.196-3.635h0.029c0.062-0.076,0.477-0.104,1.245-0.082l2.868,0.145
			c0.105,0.418,0.146,1.084,0.118,2.002c-0.026,0.918,0.008,1.445,0.102,1.586c0.412,0.092,0.929,0.146,1.549,0.166
			c0.622,0.018,1.338-0.002,2.148-0.057L150.983,67.51z"/>
	</g>
</g>
<g>
	<g>
		<path fill="#F3A696" d="M188.377,47.711c0.151,0.9-0.19,1.781-1.091,1.932c-6.066,1.02-6.103,0.809-12.169,1.828
			s-6.07,0.998-12.137,2.018c-0.9,0.152-1.881-0.264-2.032-1.164c-1.02-6.066-1.125-6.049-2.146-12.115
			c-1.02-6.066-0.83-6.098-1.851-12.165c-0.151-0.901,0.542-1.674,1.442-1.826c6.065-1.02,5.999-1.416,12.065-2.436
			s6.108-0.771,12.175-1.791c0.9-0.151,1.66,0.528,1.812,1.429c1.021,6.066,0.946,6.075,1.88,12.155
			C187.26,41.658,187.357,41.645,188.377,47.711z"/>
		<path fill="none" stroke="#DD5037" stroke-width="1.3671" stroke-linejoin="round" stroke-miterlimit="10" d="M188.377,47.711
			c0.151,0.9-0.19,1.781-1.091,1.932c-6.066,1.02-6.103,0.809-12.169,1.828s-6.07,0.998-12.137,2.018
			c-0.9,0.152-1.881-0.264-2.032-1.164c-1.02-6.066-1.125-6.049-2.146-12.115c-1.02-6.066-0.83-6.098-1.851-12.165
			c-0.151-0.901,0.542-1.674,1.442-1.826c6.065-1.02,5.999-1.416,12.065-2.436s6.108-0.771,12.175-1.791
			c0.9-0.151,1.66,0.528,1.812,1.429c1.021,6.066,0.946,6.075,1.88,12.155C187.26,41.658,187.357,41.645,188.377,47.711z"/>
	</g>
	<g>
		
			<path fill="#DD5037" stroke="#F3A696" stroke-width="0.3906" stroke-linecap="round" stroke-linejoin="round" stroke-miterlimit="10" d="
			M171.858,48.594l-0.634-3.943c-0.628-3.736-1.341-7.496-2.138-11.285l-0.034-0.023c-0.379-0.117-1.052-0.103-2.019,0.039
			c-0.966,0.143-1.48,0.21-1.542,0.2c-0.155-0.215-0.326-0.871-0.512-1.97c-0.185-1.1-0.31-1.963-0.375-2.593l-0.039-0.053
			c1.354-0.269,2.597-0.498,3.726-0.688c1.128-0.189,2.413-0.4,3.854-0.633c1.441-0.231,3.035-0.394,4.779-0.489
			c0.146,0.636,0.286,1.343,0.417,2.12c0.131,0.779,0.207,1.586,0.228,2.423c-0.24,0-0.652,0.049-1.235,0.147
			c-0.584,0.098-1.359,0.249-2.325,0.451l-0.087,0.015c-0.026,0.085,0.104,0.982,0.393,2.694c0.288,1.713,1.066,5.982,2.334,12.81
			l0.01,0.059c-0.414,0.15-1.089,0.303-2.022,0.46l-0.734,0.093c-0.934,0.157-1.599,0.311-1.994,0.456
			C171.904,48.866,171.887,48.769,171.858,48.594z"/>
	</g>
</g>
<g>
	<g>
		<path fill="#9BA8D1" d="M205.705,78.342c0,0.914-0.798,1.479-1.712,1.479c-6.151,0-6.151,0.211-12.303,0.211
			s-6.151-0.055-12.303-0.055c-0.914,0-1.902-0.721-1.902-1.635c0-6.152,0.308-6.152,0.308-12.303c0-6.152-0.064-6.152-0.064-12.303
			c0-0.914,0.745-1.463,1.659-1.463c6.151,0,6.151-0.311,12.303-0.311s6.151,0.346,12.303,0.346c0.914,0,1.805,0.514,1.805,1.428
			c0,6.15-0.293,6.15-0.276,12.303C205.538,72.189,205.705,72.189,205.705,78.342z"/>
		<path fill="none" stroke="#4564A7" stroke-width="1.3671" stroke-linejoin="round" stroke-miterlimit="10" d="M205.705,78.342
			c0,0.914-0.798,1.479-1.712,1.479c-6.151,0-6.151,0.211-12.303,0.211s-6.151-0.055-12.303-0.055c-0.914,0-1.902-0.721-1.902-1.635
			c0-6.152,0.308-6.152,0.308-12.303c0-6.152-0.064-6.152-0.064-12.303c0-0.914,0.745-1.463,1.659-1.463
			c6.151,0,6.151-0.311,12.303-0.311s6.151,0.346,12.303,0.346c0.914,0,1.805,0.514,1.805,1.428c0,6.15-0.293,6.15-0.276,12.303
			C205.538,72.189,205.705,72.189,205.705,78.342z"/>
	</g>
	<g>
		
			<path fill="#4564A7" stroke="#9BA8D1" stroke-width="0.3906" stroke-linecap="round" stroke-linejoin="round" stroke-miterlimit="10" d="
			M189.367,56.024c0.276-0.039,0.464-0.049,0.562-0.03c0.099,0.021,0.355,0.03,0.77,0.03s1.184-0.049,2.308-0.148l2.427,10.476
			l2.22,10.357v0.029c-0.493,0.099-1.065,0.148-1.717,0.148c-0.65,0-1.4-0.089-2.249-0.267h-0.029
			c-0.138-0.375-0.355-1.169-0.651-2.382c-0.296-1.214-0.542-2.027-0.739-2.441c-0.079-0.06-0.267-0.089-0.562-0.089l-1.272,0.059
			c-0.158,0.375-0.354,1.174-0.592,2.397c-0.236,1.224-0.474,2.071-0.71,2.545c-0.178,0.039-0.355,0.059-0.532,0.059l-3.699-0.059
			c-0.021,0-0.04-0.01-0.06-0.03c0.02-0.059,0.217-1.173,0.592-3.344c0.375-2.17,0.918-4.897,1.628-8.182
			C187.769,61.868,188.539,58.826,189.367,56.024z M190.225,68.275c0.729,0,1.46,0,2.189,0c-0.473-4.123-0.848-6.185-1.124-6.185
			c-0.079,0-0.158,0.147-0.236,0.443C190.975,62.83,190.699,64.744,190.225,68.275z"/>
	</g>
</g>
<g>
</g>
<g>
</g>
<g>
</g>
<g>
</g>
<g>
</g>
<g>
</g>
<g>
</g>
<g>
</g>
<g>
</g>
<g>
</g>
<g>
</g>
<g>
</g>
<g>
</g>
<g>
</g>
<g>
</g>
</svg>
