<?xml version="1.0" encoding="utf-8"?>
<!-- Generator: Adobe Illustrator 16.0.0, SVG Export Plug-In . SVG Version: 6.00 Build 0)  -->
<!DOCTYPE svg PUBLIC "-//W3C//DTD SVG 1.1 Tiny//EN" "http://www.w3.org/Graphics/SVG/1.1/DTD/svg11-tiny.dtd">
<svg version="1.1" baseProfile="tiny" id="Layer_1" xmlns="http://www.w3.org/2000/svg" xmlns:xlink="http://www.w3.org/1999/xlink"
	 x="0px" y="0px" width="200.379px" height="103.172px" viewBox="0 0 200.379 103.172" xml:space="preserve">
<g>
	<g>
		<path fill="#FFFFFF" d="M7.844,73.22l3.316,9.176l1.079,0.354v1.342H7.335V82.75l1.157-0.354l-0.37-1.156H4.698L4.312,82.38
			l1.203,0.37v1.342H0.858V82.75l1.125-0.354l3.394-9.131L7.844,73.22z M6.456,75.934l-1.218,3.655h2.375L6.456,75.934z"/>
		<path fill="#FFFFFF" d="M12.965,75.888l3.192-0.124l0.139,1.064c0.082-0.093,0.195-0.206,0.339-0.339
			c0.145-0.135,0.403-0.314,0.779-0.541c0.375-0.226,0.717-0.339,1.025-0.339c0.247,0,0.485,0.023,0.717,0.069
			c0.231,0.047,0.403,0.096,0.517,0.146l0.154,0.062l-0.123,2.93h-1.342l-0.231-1.311c-0.268,0-0.54,0.072-0.817,0.215
			c-0.277,0.145-0.488,0.289-0.632,0.433l-0.216,0.216v4.103l1.465,0.386v1.233h-4.966v-1.233l1.233-0.386v-5.044l-1.233-0.308
			V75.888z"/>
		<path fill="#FFFFFF" d="M26.999,81.625l0.771,1.311c-0.997,0.875-2.103,1.312-3.315,1.312c-1.265,0-2.249-0.37-2.953-1.11
			c-0.705-0.74-1.057-1.769-1.057-3.084c0-1.379,0.372-2.463,1.118-3.255c0.745-0.792,1.786-1.188,3.123-1.188
			c0.391,0,0.812,0.044,1.265,0.132c0.452,0.087,0.807,0.177,1.063,0.27l0.37,0.139l-0.077,2.514h-1.388l-0.216-1.11
			c-0.299-0.082-0.653-0.124-1.064-0.124c-0.575,0-1.021,0.193-1.334,0.579s-0.47,0.964-0.47,1.735c0,0.873,0.161,1.542,0.485,2.004
			c0.324,0.463,0.805,0.694,1.442,0.694c0.205,0,0.4-0.018,0.586-0.054c0.185-0.036,0.364-0.09,0.539-0.162s0.312-0.133,0.409-0.186
			c0.098-0.051,0.231-0.128,0.401-0.23C26.867,81.707,26.968,81.646,26.999,81.625z"/>
		<path fill="#FFFFFF" d="M28.31,72.263l3.501-0.123v4.519c0.843-0.699,1.706-1.049,2.591-1.049c0.771,0,1.362,0.245,1.773,0.733
			s0.617,1.169,0.617,2.043v4.087l1.079,0.386v1.233h-4.164v-1.233l0.802-0.371v-3.747c0-0.822-0.339-1.233-1.018-1.233
			c-0.257,0-0.524,0.068-0.802,0.208c-0.277,0.139-0.494,0.274-0.647,0.409l-0.231,0.199v4.149l0.817,0.386v1.233H28.31v-1.233
			l1.233-0.386v-8.667l-1.233-0.309V72.263z"/>
		<path fill="#FFFFFF" d="M38.75,75.888l3.501-0.124v6.709l1.079,0.386v1.233h-4.58v-1.233l1.233-0.386v-5.044l-1.233-0.308V75.888z
			 M39.69,73.22c0-0.422,0.131-0.759,0.394-1.011c0.262-0.252,0.573-0.378,0.933-0.378c0.864,0,1.296,0.463,1.296,1.389
			c0,0.432-0.131,0.773-0.394,1.025c-0.262,0.252-0.562,0.377-0.902,0.377c-0.422,0-0.748-0.12-0.979-0.361
			C39.807,74.019,39.69,73.672,39.69,73.22z"/>
		<path fill="#FFFFFF" d="M48.389,81.779l1.357-4.503l-0.895-0.2v-1.234l4.041-0.077v1.312l-0.879,0.2l-2.483,6.816h-2.545
			l-2.437-6.771l-0.74-0.246v-1.234l4.041-0.077v1.312l-0.864,0.154L48.389,81.779z"/>
		<path fill="#FFFFFF" d="M61.05,80.391l-5.12,0.046c0.041,0.638,0.229,1.131,0.563,1.48c0.334,0.35,0.763,0.524,1.287,0.524
			c0.381,0,0.787-0.059,1.219-0.177c0.432-0.119,0.766-0.239,1.002-0.363l0.37-0.185l0.663,1.233
			c-0.113,0.093-0.272,0.211-0.478,0.355c-0.206,0.144-0.617,0.336-1.234,0.578c-0.616,0.241-1.218,0.362-1.804,0.362
			c-1.306,0-2.301-0.362-2.984-1.087s-1.025-1.751-1.025-3.077c0-1.367,0.364-2.454,1.095-3.262
			c0.729-0.808,1.737-1.211,3.022-1.211c1.131,0,2,0.324,2.606,0.972c0.606,0.648,0.91,1.532,0.91,2.652L61.05,80.391z
			 M57.472,77.415c-0.421,0-0.763,0.144-1.025,0.432c-0.262,0.288-0.424,0.674-0.485,1.157h2.775
			C58.736,77.945,58.315,77.415,57.472,77.415z"/>
		<path fill="#FFFFFF" d="M67.374,75.918v-0.694c0-1.008,0.282-1.805,0.848-2.391s1.378-0.879,2.437-0.879
			c0.494,0,0.964,0.049,1.411,0.146s0.773,0.193,0.979,0.285l0.309,0.139l-0.046,2.283H71.97l-0.231-1.141
			c-0.258-0.041-0.556-0.062-0.895-0.062c-0.792,0-1.188,0.453-1.188,1.357v0.956h2.005l-0.047,1.542h-1.958v5.013l1.48,0.386v1.233
			H66.14v-1.233l1.234-0.386V77.46h-1.389V76.15L67.374,75.918z"/>
		<path fill="#FFFFFF" d="M77.059,75.61c1.243,0,2.202,0.362,2.876,1.087c0.673,0.726,1.01,1.751,1.01,3.077
			c0,1.378-0.372,2.468-1.118,3.27c-0.745,0.802-1.745,1.203-2.999,1.203c-2.622,0-3.933-1.413-3.933-4.241
			c0-1.377,0.375-2.455,1.126-3.23C74.771,75.998,75.783,75.61,77.059,75.61z M76.981,77.384c-0.586,0-1.016,0.189-1.288,0.57
			s-0.408,1.038-0.408,1.974c0,0.884,0.128,1.529,0.385,1.936s0.669,0.609,1.234,0.609s0.981-0.2,1.249-0.602
			s0.401-1.074,0.401-2.021c0-0.832-0.127-1.452-0.378-1.858C77.925,77.587,77.526,77.384,76.981,77.384z"/>
		<path fill="#FFFFFF" d="M82.024,75.888l3.192-0.124l0.139,1.064c0.082-0.093,0.195-0.206,0.339-0.339
			c0.145-0.135,0.403-0.314,0.779-0.541c0.375-0.226,0.717-0.339,1.025-0.339c0.247,0,0.485,0.023,0.717,0.069
			c0.231,0.047,0.403,0.096,0.517,0.146l0.154,0.062l-0.123,2.93h-1.342l-0.231-1.311c-0.268,0-0.54,0.072-0.817,0.215
			c-0.277,0.145-0.488,0.289-0.632,0.433l-0.216,0.216v4.103l1.465,0.386v1.233h-4.966v-1.233l1.233-0.386v-5.044l-1.233-0.308
			V75.888z"/>
		<path fill="#FFFFFF" d="M99.836,73.22l3.316,9.176l1.079,0.354v1.342h-4.904V82.75l1.157-0.354l-0.37-1.156H96.69l-0.386,1.141
			l1.203,0.37v1.342h-4.657V82.75l1.125-0.354l3.394-9.131L99.836,73.22z M98.448,75.934l-1.218,3.655h2.375L98.448,75.934z"/>
		<path fill="#FFFFFF" d="M105.79,81.486v-4.087l-1.126-0.277v-1.233l3.408-0.124v5.29c0,0.422,0.066,0.732,0.2,0.934
			c0.134,0.199,0.354,0.301,0.663,0.301c0.288,0,0.584-0.07,0.887-0.209c0.304-0.139,0.537-0.279,0.702-0.424l0.231-0.217v-4.04
			l-1.142-0.277v-1.233l3.408-0.124v6.709l1.172,0.308v1.203l-3.146,0.108l-0.154-1.079c-0.031,0.03-0.08,0.074-0.146,0.131
			c-0.067,0.057-0.198,0.156-0.394,0.301s-0.396,0.27-0.602,0.377c-0.206,0.108-0.455,0.207-0.748,0.293
			c-0.293,0.088-0.573,0.132-0.84,0.132c-0.771,0-1.36-0.241-1.767-0.726C105.992,83.039,105.79,82.36,105.79,81.486z"/>
		<path fill="#FFFFFF" d="M116.569,81.394l0.124,1.079c0.339,0.103,0.761,0.153,1.265,0.153c0.812,0,1.218-0.277,1.218-0.832
			c0-0.236-0.139-0.439-0.416-0.609s-0.617-0.316-1.018-0.439c-0.401-0.123-0.803-0.27-1.203-0.439
			c-0.401-0.17-0.74-0.43-1.018-0.779c-0.278-0.35-0.417-0.775-0.417-1.279c0-0.904,0.304-1.57,0.91-1.998
			c0.606-0.426,1.362-0.64,2.267-0.64c0.411,0,0.856,0.038,1.334,0.116c0.479,0.076,0.856,0.151,1.134,0.223l0.401,0.124
			c-0.021,0.515-0.041,1.285-0.062,2.313h-1.357l-0.231-1.002c-0.268-0.104-0.606-0.154-1.018-0.154
			c-0.319,0-0.571,0.068-0.756,0.207c-0.186,0.139-0.277,0.332-0.277,0.579c0,0.236,0.141,0.437,0.424,0.601
			c0.282,0.165,0.622,0.309,1.018,0.433c0.396,0.123,0.794,0.265,1.195,0.424s0.743,0.409,1.025,0.748
			c0.283,0.339,0.425,0.756,0.425,1.249c0,0.875-0.322,1.556-0.964,2.044c-0.644,0.488-1.504,0.732-2.584,0.732
			c-0.432,0-0.884-0.028-1.356-0.085c-0.474-0.057-0.839-0.11-1.096-0.162l-0.386-0.092v-2.514H116.569z"/>
		<path fill="#FFFFFF" d="M126.023,84.247c-0.854,0-1.439-0.274-1.758-0.825c-0.319-0.55-0.479-1.509-0.479-2.877v-2.883h-1.435
			v-1.465l1.435-0.201v-2.129l2.268-0.416v2.545h2.159v1.666h-2.159v3.484c0,0.515,0.056,0.875,0.169,1.08
			c0.113,0.206,0.329,0.309,0.648,0.309c0.37,0,0.775-0.118,1.218-0.355l0.556,1.111C127.74,83.927,126.866,84.247,126.023,84.247z"
			/>
		<path fill="#FFFFFF" d="M129.37,75.888l3.192-0.124l0.139,1.064c0.082-0.093,0.195-0.206,0.339-0.339
			c0.145-0.135,0.403-0.314,0.779-0.541c0.375-0.226,0.717-0.339,1.025-0.339c0.247,0,0.485,0.023,0.717,0.069
			c0.231,0.047,0.403,0.096,0.517,0.146l0.154,0.062l-0.123,2.93h-1.342l-0.231-1.311c-0.268,0-0.54,0.072-0.817,0.215
			c-0.277,0.145-0.488,0.289-0.632,0.433l-0.216,0.216v4.103l1.465,0.386v1.233h-4.966v-1.233l1.233-0.386v-5.044l-1.233-0.308
			V75.888z"/>
		<path fill="#FFFFFF" d="M136.927,75.888l3.501-0.124v6.709l1.079,0.386v1.233h-4.58v-1.233l1.233-0.386v-5.044l-1.233-0.308
			V75.888z M137.867,73.22c0-0.422,0.131-0.759,0.394-1.011c0.262-0.252,0.573-0.378,0.933-0.378c0.864,0,1.296,0.463,1.296,1.389
			c0,0.432-0.131,0.773-0.394,1.025c-0.262,0.252-0.562,0.377-0.902,0.377c-0.422,0-0.748-0.12-0.979-0.361
			C137.983,74.019,137.867,73.672,137.867,73.22z"/>
		<path fill="#FFFFFF" d="M150.698,83.984l-3.054,0.108l-0.277-1.003c-0.093,0.083-0.217,0.188-0.371,0.316
			c-0.153,0.129-0.449,0.301-0.887,0.518c-0.437,0.215-0.851,0.323-1.241,0.323c-0.751,0-1.337-0.21-1.758-0.632
			c-0.422-0.422-0.633-1.019-0.633-1.789c0-1.697,1.234-2.545,3.701-2.545h1.08v-0.849c0-0.771-0.396-1.156-1.188-1.156
			c-0.236,0-0.468,0.021-0.694,0.062c-0.226,0.041-0.396,0.082-0.509,0.123l-0.154,0.047l-0.231,1.002h-1.388l-0.108-2.282
			c1.244-0.411,2.36-0.617,3.347-0.617c1.173,0,2,0.229,2.483,0.687s0.725,1.246,0.725,2.367v3.81l1.157,0.277V83.984z
			 M144.698,81.593c0,0.617,0.304,0.926,0.91,0.926c0.247,0,0.507-0.074,0.779-0.224s0.485-0.301,0.64-0.454l0.231-0.217v-1.033
			h-0.879c-0.597,0-1.025,0.08-1.288,0.239C144.83,80.99,144.698,81.245,144.698,81.593z"/>
		<path fill="#FFFFFF" d="M151.577,75.888l3.192-0.124l0.107,1.064c0.113-0.093,0.263-0.203,0.447-0.332
			c0.186-0.128,0.527-0.303,1.025-0.524c0.499-0.221,0.954-0.331,1.365-0.331c0.74,0,1.309,0.244,1.704,0.732
			s0.594,1.159,0.594,2.013v4.087c0.134,0.041,0.324,0.108,0.57,0.2c0.247,0.093,0.417,0.154,0.51,0.186v1.233h-4.164v-1.233
			l0.817-0.386v-3.732c0-0.36-0.096-0.655-0.285-0.887c-0.19-0.231-0.445-0.347-0.764-0.347c-0.288,0-0.568,0.074-0.841,0.223
			c-0.272,0.15-0.476,0.297-0.609,0.439l-0.2,0.217v4.087l0.802,0.386v1.233h-4.271v-1.233l1.188-0.386v-5.044l-1.188-0.308V75.888z
			"/>
		<path fill="#FFFFFF" d="M4.944,99.105l-3.115-9.084l-1.048-0.432V88.31l4.78-0.078v1.357l-1.141,0.447l1.418,4.457l0.494,1.896
			l0.493-1.819l1.527-4.519l-1.173-0.463V88.31l4.611-0.078v1.357l-1.126,0.463l-3.254,9.053H4.944z"/>
		<path fill="#FFFFFF" d="M12.455,90.9l3.501-0.123v6.709l1.079,0.385v1.234h-4.58v-1.234l1.233-0.385v-5.043l-1.233-0.309V90.9z
			 M13.396,88.232c0-0.421,0.131-0.758,0.394-1.01c0.262-0.252,0.573-0.378,0.933-0.378c0.864,0,1.296,0.463,1.296,1.388
			c0,0.432-0.131,0.773-0.394,1.025c-0.262,0.252-0.562,0.379-0.902,0.379c-0.422,0-0.748-0.121-0.979-0.363
			C13.512,89.032,13.396,88.685,13.396,88.232z"/>
		<path fill="#FFFFFF" d="M26.798,98.998l-3.238,0.107l-0.14-0.817c-0.647,0.647-1.424,0.972-2.328,0.972
			c-1.06,0-1.851-0.359-2.375-1.08c-0.524-0.719-0.787-1.732-0.787-3.037c0-1.461,0.368-2.578,1.104-3.355
			c0.734-0.775,1.821-1.164,3.262-1.164c0.339,0,0.673,0.052,1.002,0.154v-1.959l-1.233-0.309v-1.233l3.501-0.123v10.302
			l1.233,0.309V98.998z M23.297,96.576v-3.948c-0.257-0.153-0.658-0.231-1.203-0.231c-1.183,0-1.773,0.875-1.773,2.622
			c0,1.624,0.494,2.437,1.48,2.437c0.288,0,0.558-0.074,0.81-0.224s0.43-0.296,0.532-0.439L23.297,96.576z"/>
		<path fill="#FFFFFF" d="M35.156,95.404l-5.12,0.046c0.041,0.638,0.229,1.132,0.563,1.481c0.334,0.35,0.763,0.523,1.287,0.523
			c0.381,0,0.787-0.059,1.219-0.178c0.432-0.117,0.766-0.238,1.002-0.361l0.37-0.186l0.663,1.234
			c-0.113,0.092-0.272,0.211-0.478,0.354c-0.206,0.145-0.617,0.338-1.234,0.579c-0.616,0.241-1.218,0.362-1.804,0.362
			c-1.306,0-2.301-0.362-2.984-1.088c-0.684-0.725-1.025-1.75-1.025-3.076c0-1.367,0.364-2.455,1.095-3.262
			c0.729-0.807,1.737-1.211,3.022-1.211c1.131,0,2,0.324,2.606,0.972s0.91,1.532,0.91,2.653L35.156,95.404z M31.578,92.427
			c-0.421,0-0.763,0.145-1.025,0.432c-0.262,0.288-0.424,0.674-0.485,1.156h2.775C32.843,92.957,32.422,92.427,31.578,92.427z"/>
		<path fill="#FFFFFF" d="M40.369,90.623c1.243,0,2.202,0.363,2.876,1.088c0.673,0.725,1.01,1.75,1.01,3.076
			c0,1.378-0.372,2.468-1.118,3.27c-0.745,0.803-1.745,1.203-2.999,1.203c-2.622,0-3.933-1.414-3.933-4.241
			c0-1.378,0.375-2.454,1.126-3.231C38.081,91.011,39.094,90.623,40.369,90.623z M40.292,92.396c-0.586,0-1.016,0.19-1.288,0.57
			c-0.272,0.381-0.408,1.039-0.408,1.975c0,0.885,0.128,1.529,0.385,1.936s0.669,0.609,1.234,0.609s0.981-0.201,1.249-0.602
			s0.401-1.074,0.401-2.021c0-0.833-0.127-1.452-0.378-1.858C41.235,92.599,40.837,92.396,40.292,92.396z"/>
		<path fill="#FFFFFF" d="M56.547,91.548l-0.386-1.326c-0.483-0.164-1.064-0.247-1.743-0.247c-1.717,0-2.575,1.259-2.575,3.778
			c0,2.385,0.874,3.578,2.622,3.578c0.236,0,0.495-0.023,0.778-0.069s0.507-0.09,0.671-0.132l0.247-0.076v-1.943l-1.157-0.355
			v-1.264l4.442-0.078v1.342l-1.049,0.355v3.146c-0.124,0.082-0.296,0.18-0.517,0.293c-0.222,0.113-0.697,0.264-1.427,0.455
			c-0.73,0.189-1.48,0.285-2.252,0.285c-1.573,0-2.789-0.465-3.647-1.396c-0.858-0.93-1.287-2.285-1.287-4.063
			c0-1.8,0.468-3.213,1.403-4.241c0.936-1.027,2.2-1.542,3.794-1.542c0.555,0,1.131,0.06,1.727,0.177
			c0.597,0.119,1.06,0.239,1.389,0.363l0.478,0.185l-0.077,2.776H56.547z"/>
		<path fill="#FFFFFF" d="M68.777,98.998l-3.054,0.107l-0.277-1.002c-0.093,0.082-0.217,0.188-0.371,0.315
			c-0.153,0.129-0.449,0.301-0.887,0.517c-0.437,0.217-0.851,0.324-1.241,0.324c-0.751,0-1.337-0.211-1.758-0.633
			c-0.422-0.421-0.633-1.018-0.633-1.789c0-1.695,1.234-2.544,3.701-2.544h1.08v-0.849c0-0.771-0.396-1.156-1.188-1.156
			c-0.236,0-0.468,0.021-0.694,0.062c-0.226,0.041-0.396,0.083-0.509,0.124l-0.154,0.045l-0.231,1.003h-1.388l-0.108-2.282
			c1.244-0.411,2.36-0.617,3.347-0.617c1.173,0,2,0.229,2.483,0.687s0.725,1.247,0.725,2.367v3.81l1.157,0.277V98.998z
			 M62.777,96.607c0,0.617,0.304,0.925,0.91,0.925c0.247,0,0.507-0.074,0.779-0.224c0.272-0.148,0.485-0.301,0.64-0.455l0.231-0.216
			v-1.033h-0.879c-0.597,0-1.025,0.08-1.288,0.239C62.909,96.003,62.777,96.257,62.777,96.607z"/>
		<path fill="#FFFFFF" d="M82.873,93.399v4.087l1.049,0.385v1.234h-4.134v-1.234l0.817-0.385v-3.625c0-0.432-0.069-0.75-0.208-0.955
			c-0.139-0.206-0.367-0.309-0.687-0.309c-0.298,0-0.588,0.066-0.871,0.2s-0.491,0.268-0.624,0.401l-0.217,0.2v4.087l0.803,0.385
			v1.234h-3.887v-1.234l0.802-0.385v-3.625c0-0.441-0.066-0.763-0.2-0.963c-0.134-0.201-0.36-0.301-0.679-0.301
			c-0.299,0-0.592,0.066-0.879,0.2c-0.288,0.134-0.504,0.268-0.647,0.401l-0.201,0.2v4.087l0.817,0.385v1.234h-4.271v-1.234
			l1.188-0.385v-5.059l-1.172-0.293V90.9l3.177-0.123l0.107,1.096c0.103-0.094,0.242-0.209,0.417-0.348s0.498-0.324,0.972-0.555
			c0.473-0.232,0.909-0.348,1.311-0.348c1.018,0,1.717,0.442,2.098,1.326c0.154-0.154,0.334-0.312,0.539-0.478
			c0.206-0.165,0.53-0.347,0.972-0.548c0.442-0.2,0.869-0.301,1.28-0.301c0.771,0,1.352,0.242,1.743,0.725
			C82.678,91.832,82.873,92.515,82.873,93.399z"/>
		<path fill="#FFFFFF" d="M92.342,95.404l-5.12,0.046c0.041,0.638,0.229,1.132,0.563,1.481c0.334,0.35,0.763,0.523,1.287,0.523
			c0.381,0,0.787-0.059,1.219-0.178c0.432-0.117,0.766-0.238,1.002-0.361l0.37-0.186l0.663,1.234
			c-0.113,0.092-0.272,0.211-0.478,0.354c-0.206,0.145-0.617,0.338-1.234,0.579c-0.616,0.241-1.218,0.362-1.804,0.362
			c-1.306,0-2.301-0.362-2.984-1.088c-0.684-0.725-1.025-1.75-1.025-3.076c0-1.367,0.364-2.455,1.095-3.262
			c0.729-0.807,1.737-1.211,3.022-1.211c1.131,0,2,0.324,2.606,0.972s0.91,1.532,0.91,2.653L92.342,95.404z M88.764,92.427
			c-0.421,0-0.763,0.145-1.025,0.432c-0.262,0.288-0.424,0.674-0.485,1.156h2.775C90.028,92.957,89.607,92.427,88.764,92.427z"/>
		<path fill="#FFFFFF" d="M97.276,99.105v-1.342l1.157-0.385v-7.326l-1.157-0.463V88.31l3.547-0.078h1.466
			c1.562,0,2.771,0.453,3.624,1.357s1.28,2.216,1.28,3.933c0,1.728-0.463,3.09-1.389,4.087c-0.925,0.998-2.174,1.496-3.747,1.496
			H97.276z M100.823,90.052V97.3h1.28c0.802,0,1.419-0.285,1.851-0.855s0.648-1.52,0.648-2.846c0-1.254-0.203-2.159-0.609-2.715
			c-0.406-0.555-1-0.832-1.781-0.832H100.823z"/>
		<path fill="#FFFFFF" d="M115.813,95.404l-5.12,0.046c0.041,0.638,0.229,1.132,0.563,1.481c0.334,0.35,0.763,0.523,1.287,0.523
			c0.381,0,0.787-0.059,1.219-0.178c0.432-0.117,0.766-0.238,1.002-0.361l0.37-0.186l0.663,1.234
			c-0.113,0.092-0.272,0.211-0.478,0.354c-0.206,0.145-0.617,0.338-1.234,0.579c-0.616,0.241-1.218,0.362-1.804,0.362
			c-1.306,0-2.301-0.362-2.984-1.088c-0.684-0.725-1.025-1.75-1.025-3.076c0-1.367,0.364-2.455,1.095-3.262
			c0.729-0.807,1.737-1.211,3.022-1.211c1.131,0,2,0.324,2.606,0.972s0.91,1.532,0.91,2.653L115.813,95.404z M112.235,92.427
			c-0.421,0-0.763,0.145-1.025,0.432c-0.262,0.288-0.424,0.674-0.485,1.156h2.775C113.5,92.957,113.079,92.427,112.235,92.427z"/>
		<path fill="#FFFFFF" d="M120.979,96.792l1.357-4.503l-0.895-0.201v-1.233l4.041-0.077v1.311l-0.879,0.201l-2.483,6.816h-2.545
			l-2.437-6.771l-0.74-0.247v-1.233l4.041-0.077v1.311l-0.864,0.154L120.979,96.792z"/>
		<path fill="#FFFFFF" d="M133.642,95.404l-5.12,0.046c0.041,0.638,0.229,1.132,0.563,1.481c0.334,0.35,0.763,0.523,1.287,0.523
			c0.381,0,0.787-0.059,1.219-0.178c0.432-0.117,0.766-0.238,1.002-0.361l0.37-0.186l0.663,1.234
			c-0.113,0.092-0.272,0.211-0.478,0.354c-0.206,0.145-0.617,0.338-1.234,0.579c-0.616,0.241-1.218,0.362-1.804,0.362
			c-1.306,0-2.301-0.362-2.984-1.088c-0.684-0.725-1.025-1.75-1.025-3.076c0-1.367,0.364-2.455,1.095-3.262
			c0.729-0.807,1.737-1.211,3.022-1.211c1.131,0,2,0.324,2.606,0.972s0.91,1.532,0.91,2.653L133.642,95.404z M130.063,92.427
			c-0.421,0-0.763,0.145-1.025,0.432c-0.262,0.288-0.424,0.674-0.485,1.156h2.775C131.328,92.957,130.907,92.427,130.063,92.427z"/>
		<path fill="#FFFFFF" d="M134.536,87.276l3.562-0.123v10.333l1.465,0.385v1.234h-5.027v-1.234l1.233-0.385v-8.668l-1.233-0.309
			V87.276z"/>
		<path fill="#FFFFFF" d="M144.376,90.623c1.243,0,2.202,0.363,2.876,1.088c0.673,0.725,1.01,1.75,1.01,3.076
			c0,1.378-0.372,2.468-1.118,3.27c-0.745,0.803-1.745,1.203-2.999,1.203c-2.622,0-3.933-1.414-3.933-4.241
			c0-1.378,0.375-2.454,1.126-3.231C142.088,91.011,143.101,90.623,144.376,90.623z M144.299,92.396c-0.586,0-1.016,0.19-1.288,0.57
			c-0.272,0.381-0.408,1.039-0.408,1.975c0,0.885,0.128,1.529,0.385,1.936s0.669,0.609,1.234,0.609s0.981-0.201,1.249-0.602
			s0.401-1.074,0.401-2.021c0-0.833-0.127-1.452-0.378-1.858C145.242,92.599,144.844,92.396,144.299,92.396z"/>
		<path fill="#FFFFFF" d="M150.344,92.443l-1.233-0.309V90.9l3.238-0.123l0.139,0.863c0.083-0.071,0.193-0.164,0.332-0.277
			s0.406-0.264,0.802-0.455c0.396-0.189,0.779-0.285,1.149-0.285c1.049,0,1.845,0.363,2.39,1.088s0.817,1.725,0.817,2.999
			c0,1.46-0.352,2.583-1.056,3.37c-0.705,0.786-1.756,1.18-3.154,1.18c-0.36,0-0.745-0.052-1.156-0.154v1.959l1.465,0.354v1.233
			h-4.936v-1.233l1.203-0.354V92.443z M152.611,93.291v4.118c0.257,0.154,0.657,0.231,1.203,0.231c0.637,0,1.092-0.219,1.364-0.656
			c0.272-0.437,0.409-1.102,0.409-1.996c0-1.697-0.515-2.545-1.543-2.545c-0.298,0-0.565,0.072-0.802,0.216s-0.4,0.288-0.493,0.432
			L152.611,93.291z"/>
		<path fill="#FFFFFF" d="M172.274,93.399v4.087l1.049,0.385v1.234h-4.134v-1.234l0.817-0.385v-3.625
			c0-0.432-0.069-0.75-0.208-0.955c-0.139-0.206-0.367-0.309-0.687-0.309c-0.298,0-0.588,0.066-0.871,0.2s-0.491,0.268-0.624,0.401
			l-0.217,0.2v4.087l0.803,0.385v1.234h-3.887v-1.234l0.802-0.385v-3.625c0-0.441-0.066-0.763-0.2-0.963
			c-0.134-0.201-0.36-0.301-0.679-0.301c-0.299,0-0.592,0.066-0.879,0.2c-0.288,0.134-0.504,0.268-0.647,0.401l-0.201,0.2v4.087
			l0.817,0.385v1.234h-4.271v-1.234l1.188-0.385v-5.059l-1.172-0.293V90.9l3.177-0.123l0.107,1.096
			c0.103-0.094,0.242-0.209,0.417-0.348s0.498-0.324,0.972-0.555c0.473-0.232,0.909-0.348,1.311-0.348
			c1.018,0,1.717,0.442,2.098,1.326c0.154-0.154,0.334-0.312,0.539-0.478c0.206-0.165,0.53-0.347,0.972-0.548
			c0.442-0.2,0.869-0.301,1.28-0.301c0.771,0,1.352,0.242,1.743,0.725C172.079,91.832,172.274,92.515,172.274,93.399z"/>
		<path fill="#FFFFFF" d="M181.743,95.404l-5.12,0.046c0.041,0.638,0.229,1.132,0.563,1.481c0.334,0.35,0.763,0.523,1.287,0.523
			c0.381,0,0.787-0.059,1.219-0.178c0.432-0.117,0.766-0.238,1.002-0.361l0.37-0.186l0.663,1.234
			c-0.113,0.092-0.272,0.211-0.478,0.354c-0.206,0.145-0.617,0.338-1.234,0.579c-0.616,0.241-1.218,0.362-1.804,0.362
			c-1.306,0-2.301-0.362-2.984-1.088c-0.684-0.725-1.025-1.75-1.025-3.076c0-1.367,0.364-2.455,1.095-3.262
			c0.729-0.807,1.737-1.211,3.022-1.211c1.131,0,2,0.324,2.606,0.972s0.91,1.532,0.91,2.653L181.743,95.404z M178.165,92.427
			c-0.421,0-0.763,0.145-1.025,0.432c-0.262,0.288-0.424,0.674-0.485,1.156h2.775C179.43,92.957,179.009,92.427,178.165,92.427z"/>
		<path fill="#FFFFFF" d="M182.792,90.9l3.192-0.123l0.107,1.064c0.113-0.093,0.263-0.203,0.447-0.332
			c0.186-0.129,0.527-0.303,1.025-0.523c0.499-0.222,0.954-0.332,1.365-0.332c0.74,0,1.309,0.244,1.704,0.732
			s0.594,1.159,0.594,2.013v4.087c0.134,0.041,0.324,0.107,0.57,0.2c0.247,0.093,0.417,0.154,0.51,0.185v1.234h-4.164v-1.234
			l0.817-0.385v-3.732c0-0.359-0.096-0.655-0.285-0.887c-0.19-0.231-0.445-0.348-0.764-0.348c-0.288,0-0.568,0.075-0.841,0.225
			c-0.272,0.148-0.476,0.295-0.609,0.439l-0.2,0.216v4.087l0.802,0.385v1.234h-4.271v-1.234l1.188-0.385v-5.043l-1.188-0.309V90.9z"
			/>
		<path fill="#FFFFFF" d="M196.595,99.259c-0.854,0-1.439-0.275-1.758-0.825c-0.319-0.55-0.479-1.509-0.479-2.876v-2.885h-1.435
			v-1.465l1.435-0.2V88.88l2.268-0.417v2.545h2.159v1.665h-2.159v3.486c0,0.514,0.056,0.873,0.169,1.079s0.329,0.309,0.648,0.309
			c0.37,0,0.775-0.118,1.218-0.354l0.556,1.11C198.312,98.941,197.438,99.259,196.595,99.259z"/>
	</g>
	<g>
		<g>
			<g>
				<path fill="#FFFFFF" d="M145.131,30.675c-2.889-0.087-11.684-0.264-19.107-0.184c-7.926,0.087-14.81-0.115-22.054-0.078
					c-7.688,0.037-14.121,0.041-16.448,0.11c-0.861,0.027-1.372,0.723-1.377,1.514c-0.005,1.158,0.111,12.931,0.17,18.087
					c0.02,1.793,0.006,10.008,0.056,10.871c0.041,0.672,0.787,1.388,1.543,1.427c3.978,0.208,14.721,0.153,18.387,0.155
					c6.096,0.01,13.129,0.137,19.457,0.109c8.242-0.037,15.374-0.242,18.564-0.279c1.409-0.018,2.016-1.188,2.044-1.484
					c0.183-1.859,0-13.173-0.036-20.528c-0.009-2.011-0.008-5.812-0.038-7.868C146.287,31.955,145.798,30.698,145.131,30.675z
					 M125.704,47.5c-5.922,0.343-11.85,0.54-17.838-0.22c-0.313-0.039-0.48-0.295-0.538-0.573c-0.017-0.067-0.03-0.138-0.035-0.214
					c-0.11-1.636-0.146-3.16-0.226-4.795c-0.021-0.503,0.255-0.812,0.641-0.887c4.835-0.928,10.402-0.229,15.314,0.209
					c1.076,0.097,2.427,0.271,2.804,0.838c0.677,1.026,0.258,2.488,0.518,4.756C126.397,47.076,126.072,47.477,125.704,47.5z"/>
				<path fill="#FFFFFF" d="M122.56,42.333c-1.467-0.097-3.059-0.005-4.525-0.05c-3.147-0.1-9.44-0.365-9.483-0.104
					s-0.019,3.744,0.146,3.775c0.163,0.033,16.091,0.41,16.126,0.125c0.023-0.203-0.027-2.381-0.32-3.025
					C124.263,42.526,123.166,42.373,122.56,42.333z"/>
			</g>
			<path fill="#FFFFFF" d="M85.73,28.992c2.029,0.037,4.068-0.073,14.286-0.083c3.326-0.004,7.47,0.08,12.828,0.083
				c4.705,0,11.859,0.161,18.29,0.219c7.325,0.066,13.711,0.025,14.466-0.055c1.216-0.136,1.436-1.172,1.419-1.98
				c-0.015-0.859,0.044-1.785,0.032-3.209c-0.015-2.044-0.448-2.461-1.216-2.519c-0.965-0.07-3.108-0.294-7.017-0.324
				c-7.503-0.062-15.292-0.307-22.98-0.356c-10.324,0.215-25.071-0.425-29.952-0.336c-0.82,0.014-1.881,0.643-1.796,1.682
				c0.133,1.621,0.166,2.25-0.034,4.468C83.913,28.196,84.327,28.967,85.73,28.992z"/>
		</g>
		<path fill="#FFFFFF" d="M47.656,38.402c0.173-3.602,0.306-7.054,0.437-10.703c0.131-3.648,0.008-7.936,0.171-13.201
			c0.087-2.854,0.007-6.601-0.161-9.419c-0.422-3.577-1.881-3.401-5.703-3.438c-1.292-0.016-5.102,0.006-9.188-0.045
			c-4.935-0.061-10.265-0.189-11.951-0.178c-2.406,0.016-4.914-0.067-7.253-0.112C11.26,1.25,8.746,1.227,6.906,1.199
			c-2.425-0.037-3.303,1.014-3.356,2c-0.148,2.773-0.304,5.467-0.221,7.846c0.083,2.381,0.043,5.093-0.115,7.588
			C2.771,24.457,3.176,30.08,2.851,35.903C2.517,42.06,2.766,48.439,2.675,54.294c-0.07,4.766-0.839,7.725,2.511,7.803
			c2.31,0.054,12.569,0.531,15.228,0.365c3.99-0.252,7.296-0.018,11.457-0.043c2.973-0.016,9.244,0.228,12.158,0.271
			c2.372,0.035,3.221-1.221,3.267-3.929c0.054-3.506,0.255-7.235,0.298-10.904C47.633,44.707,47.5,41.632,47.656,38.402z
			 M25.743,56.289c-1.33-0.006-5.95-0.018-7.259-0.037c-2.643-0.04-4.405-0.043-6.958-0.031c-1.188-0.137-2.263-0.034-3.431-0.078
			c-1.095-0.014-1.253-1.977,0.517-1.914c1.51,0.053,4.988,0.047,7.831,0.15c2.642,0.096,7.055,0.074,9.147,0.082
			C27.11,54.465,27.176,56.296,25.743,56.289z M23.235,52.476c-1.064-0.003-5.892-0.103-7.491-0.162
			c-1.597-0.056-8.057,0.141-8.266-0.269c-0.208-0.405-0.452-0.736-0.177-1.315c0.277-0.578,4.758-0.238,7.376-0.227
			c2.653,0.012,7.973,0.097,9.304,0.1c1.326,0.004,2.655-0.031,2.668,0.885C26.659,52.603,24.288,52.482,23.235,52.476z
			 M25.604,48.621c-1.095,0.057-6.331-0.118-8.951-0.037c-2.973-0.045-8.56,0.119-8.993-0.452c-0.438-0.569-0.376-0.747-0.008-1.288
			C8.023,46.3,20.729,46.772,22.2,46.69c0.832,0.013,3.112-0.128,4.167,0.329C27.423,47.476,26.703,48.566,25.604,48.621z
			 M41.632,55.537c-0.494,1.705-2.339,1.266-1.949-0.399C39.989,53.811,41.824,54.869,41.632,55.537z M42.495,37.917
			c-1.683,1.543-4.201,1.564-6.67,1.79c-2.584,0.238-6.554,0.455-10.52,0.394c-4.613-0.068-7.1-0.199-9.496-0.418
			c-1.905-0.178-6.336-0.35-7.534-2.004c-1.526-2.112-1.81-11.467-1.802-15.285c0.005-3.02,0.346-5.815,0.676-9.316
			c0.328-3.501,0.894-5.799,2.225-6.862c1.236-0.987,5.268-1.266,7.453-1.354c2.188-0.091,6.178-0.146,8.949-0.143
			c2.726,0,15.518,0.242,16.855,1.762c1.294,1.467,1.354,3.475,1.635,5.773c0.245,2.033,0.392,4.617,0.387,10.982
			C44.651,30.199,43.617,36.891,42.495,37.917z"/>
		<path fill="#FFFFFF" d="M77.454,14.291c-1.507,3.918-4.864,12.215-7.547,19.693s-7.079,18.314-8.418,22.299
			c-1.337,3.984-1.888,4.426-0.057,5.062c1.864,0.652,2.193,0.789,2.838,1.015c1.468,0.509,2.015,0.532,2.473-0.662
			c0.459-1.189,4.509-12.225,5.749-15.107c1.229-2.856,6.177-16.214,7.751-20.304c1.571-4.09,3.1-7.809,3.527-8.916
			c0.427-1.107,0.358-1.991-0.432-2.49c-0.784-0.498-3.57-1.486-4.082-1.684C78.747,13.001,77.848,13.265,77.454,14.291z"/>
		<path fill="#FFFFFF" d="M71.132,18.117c-1.113,2.908-3.568,8.973-5.701,14.719c-2.158,5.822-4.497,11.784-6.449,16.891
			c-1.924,5.034-3.461,8.904-3.885,10.439c-0.481,1.729-0.242,2.158,1.021,2.443c1.259,0.285,1.487-0.146,2.195-1.838
			c0.638-1.518,2.776-7.399,3.645-9.618c0.902-2.308,4.74-13.125,7.907-20.909c3.167-7.785,3.412-8.922,3.982-10.504
			c0.68-1.882,0.458-2.028-0.631-2.409C71.844,16.846,71.568,16.968,71.132,18.117z"/>
		<path fill="#FFFFFF" d="M69.571,4.701c-0.992,2.416-3.799,10.171-5.912,15.915c-2.111,5.743-6.63,17.995-8.139,21.913
			c-1.508,3.923-5.72,14.803-6.232,16.361c-0.512,1.563-1.174,2.69-0.071,3.147c1.096,0.458,0.946,0.255,1.9,0.567
			c0.953,0.316,1.896-0.22,2.421-2.066c0.606-2.131,3.928-11.068,4.729-13.398c0.8-2.334,3.391-9.214,5.398-14.522
			c1.168-3.095,6.805-17.987,8.275-21.829c1.488-3.877,1.787-4.651,2.123-5.6c0.334-0.952,0.865-1.795-0.259-2.408
			c-1.449-0.797-1.927-0.744-2.173-0.771C70.612,1.884,70.267,2.995,69.571,4.701z"/>
	</g>
</g>
</svg>
